<svg width="948" height="902" viewBox="0 0 948 902" fill="none" xmlns="http://www.w3.org/2000/svg">
<path d="M923.6 321.214L501.934 13.2849C485.16 1.01441 462.389 1.01441 445.598 13.2849L23.9548 321.214C-13.3188 348.432 5.94643 407.4 52.1087 407.4H110.609V874.129C110.609 887.437 123.674 898.326 139.659 898.326H807.89C823.875 898.326 836.946 887.437 836.946 874.129V407.4H895.423C941.591 407.4 960.868 348.432 923.6 321.214Z" fill="#E7D5FF"/>
<mask id="mask0_360_198" style="mask-type:luminance" maskUnits="userSpaceOnUse" x="0" y="0" width="948" height="902">
<path d="M0 0H948V901.578H0V0Z" fill="white"/>
</mask>
<g mask="url(#mask0_360_198)">
<path d="M807.89 901.984H139.659C121.622 901.984 106.951 889.488 106.951 874.129V411.058H52.1085C29.4558 411.058 10.2807 397.153 3.25769 375.633C-3.75965 354.13 3.51696 331.607 21.7959 318.255L443.439 10.3316C461.588 -2.93086 485.966 -2.93086 504.093 10.3316L925.759 318.255C944.032 331.602 951.303 354.119 944.286 375.622C937.263 397.148 918.082 411.058 895.423 411.058H840.604V874.129C840.604 889.488 825.926 901.984 807.89 901.984ZM473.774 7.7107C464.66 7.7107 455.541 10.5515 447.757 16.2386L26.1077 324.167C10.4385 335.615 4.19897 354.925 10.2187 373.362C16.2384 391.816 32.6798 403.742 52.1085 403.742H110.609C112.632 403.742 114.267 405.377 114.267 407.4V874.129C114.267 885.453 125.658 894.668 139.659 894.668H807.89C821.891 894.668 833.282 885.453 833.282 874.129V407.4C833.282 405.377 834.922 403.742 836.946 403.742H895.423C914.858 403.742 931.305 391.815 937.33 373.351C943.344 354.92 937.11 335.609 921.441 324.167L499.775 16.2386C492.003 10.5515 482.888 7.7107 473.774 7.7107Z" fill="#BB85FB"/>
</g>
<mask id="mask1_360_198" style="mask-type:luminance" maskUnits="userSpaceOnUse" x="748" y="154" width="119" height="107">
<path d="M748.877 154.788H866.994V260.69H748.877V154.788Z" fill="white"/>
</mask>
<g mask="url(#mask1_360_198)">
<path d="M865.799 185.877C865.821 178.798 863.353 171.939 858.821 166.505C854.289 161.066 847.988 157.402 841.021 156.151C834.055 154.894 826.874 156.14 820.73 159.657C814.592 163.174 809.886 168.743 807.439 175.388C804.965 168.794 800.253 163.275 794.132 159.798C788.011 156.32 780.858 155.097 773.925 156.343C766.998 157.588 760.719 161.229 756.193 166.623C751.667 172.023 749.176 178.832 749.159 185.877C749.159 185.877 748.133 204.438 764.422 223.619C778.587 240.246 797.615 253.661 805.602 258.937C806.318 259.416 806.949 259.827 807.484 260.165C808.014 259.827 808.646 259.416 809.361 258.937C817.348 253.661 836.382 240.246 850.541 223.619C866.881 204.438 865.799 185.877 865.799 185.877Z" fill="#F0911F"/>
</g>
<path d="M807.511 252.771H807.449C799.271 247.23 781.979 234.746 769.105 219.634C754.726 202.748 755.29 186.87 755.29 186.205V185.889C755.29 182.682 755.933 179.514 757.178 176.561C758.418 173.608 760.244 170.936 762.539 168.704C764.838 166.472 767.555 164.719 770.542 163.552C773.524 162.385 776.714 161.833 779.916 161.918C784.774 162.121 789.469 163.766 793.387 166.647C797.31 169.532 800.286 173.517 801.931 178.094C802.354 179.227 803.109 180.208 804.101 180.895C805.099 181.589 806.277 181.955 807.489 181.955C808.695 181.955 809.879 181.589 810.871 180.895C811.863 180.208 812.624 179.227 813.046 178.094C814.687 173.517 817.657 169.527 821.574 166.647C825.497 163.766 830.187 162.121 835.051 161.918C838.241 161.844 841.42 162.408 844.391 163.575C847.361 164.741 850.072 166.494 852.355 168.721C854.643 170.953 856.464 173.619 857.704 176.561C858.944 179.503 859.586 182.665 859.592 185.855V186.216C859.592 186.836 860.173 202.72 845.794 219.601C833.005 234.746 815.735 247.23 807.511 252.771Z" fill="#F8C351"/>
<mask id="mask2_360_198" style="mask-type:luminance" maskUnits="userSpaceOnUse" x="683" y="260" width="88" height="77">
<path d="M683.945 260.154H770.267V336.882H683.945V260.154Z" fill="white"/>
</mask>
<g mask="url(#mask2_360_198)">
<path d="M769.828 282.88C769.845 277.711 768.035 272.695 764.727 268.721C761.412 264.748 756.807 262.07 751.718 261.152C746.628 260.239 741.375 261.146 736.888 263.716C732.396 266.292 728.958 270.362 727.171 275.215C725.362 270.395 721.918 266.365 717.443 263.823C712.967 261.276 707.743 260.385 702.675 261.298C697.608 262.206 693.026 264.866 689.717 268.812C686.409 272.757 684.588 277.734 684.571 282.88C684.571 282.88 683.827 296.447 695.731 310.47C706.08 322.622 719.99 332.424 725.83 336.285C726.348 336.635 726.816 336.933 727.205 337.181C727.594 336.933 728.056 336.635 728.58 336.285C734.414 332.424 748.325 322.622 758.673 310.47C770.617 296.447 769.828 282.88 769.828 282.88Z" fill="#F0911F"/>
</g>
<path d="M727.227 331.777H727.182C721.202 327.724 708.565 318.599 699.152 307.557C688.646 295.213 689.057 283.608 689.057 283.123V282.892C689.057 280.547 689.525 278.231 690.433 276.072C691.346 273.919 692.676 271.963 694.356 270.328C696.035 268.699 698.019 267.42 700.201 266.563C702.382 265.712 704.715 265.306 707.054 265.374C710.605 265.521 714.038 266.721 716.901 268.829C719.77 270.937 721.94 273.845 723.146 277.194C723.451 278.022 724.009 278.738 724.736 279.245C725.457 279.747 726.32 280.017 727.205 280.017C728.09 280.017 728.952 279.747 729.679 279.245C730.406 278.738 730.958 278.022 731.268 277.194C732.469 273.845 734.639 270.931 737.502 268.829C740.371 266.721 743.798 265.521 747.355 265.374C749.688 265.318 752.005 265.729 754.18 266.58C756.351 267.437 758.335 268.716 760.003 270.345C761.671 271.974 763.001 273.924 763.909 276.072C764.816 278.225 765.284 280.536 765.29 282.869V283.129C765.29 283.585 765.713 295.191 755.206 307.534C745.856 318.599 733.236 327.724 727.227 331.777Z" fill="#F8C351"/>
</svg>
