<?xml version="1.0" standalone="no"?>
<!DOCTYPE svg PUBLIC "-//W3C//DTD SVG 20010904//EN"
 "http://www.w3.org/TR/2001/REC-SVG-20010904/DTD/svg10.dtd">
<svg version="1.0" xmlns="http://www.w3.org/2000/svg"
 width="225.000000pt" height="225.000000pt" viewBox="0 0 225.000000 225.000000"
 preserveAspectRatio="xMidYMid meet">

<g transform="translate(0.000000,225.000000) scale(0.100000,-0.100000)"
fill="#000000" stroke="none">
<path d="M1090 1975 c-20 -24 3 -65 35 -65 32 0 55 41 35 65 -7 8 -23 15 -35
15 -12 0 -28 -7 -35 -15z"/>
<path d="M860 1947 c-30 -13 -75 -35 -99 -49 l-43 -26 -57 21 c-42 15 -81 21
-161 21 -93 1 -111 -2 -160 -25 -161 -76 -253 -283 -235 -529 16 -202 16 -203
-43 -327 -65 -135 -75 -196 -44 -266 44 -99 190 -141 376 -106 71 13 81 6 89
-61 19 -163 166 -278 319 -250 37 7 47 5 87 -22 61 -43 149 -68 235 -68 88 0
152 18 228 63 49 30 62 34 97 27 154 -28 302 86 318 246 8 71 17 78 89 65 186
-35 332 7 376 106 31 70 21 131 -44 266 l-53 112 4 85 c3 47 5 139 5 205 0
105 -3 132 -27 205 -81 248 -265 340 -521 260 l-68 -21 -67 34 c-92 48 -146
64 -166 47 -25 -21 -19 -59 13 -72 143 -58 223 -114 301 -212 138 -173 213
-391 215 -626 1 -134 -13 -201 -55 -270 l-22 -35 -15 25 c-9 14 -45 55 -82 91
-49 49 -91 79 -168 118 -120 62 -143 89 -191 226 -44 124 -77 155 -166 155
-88 0 -126 -37 -165 -159 -39 -122 -68 -156 -190 -221 -103 -54 -211 -144
-252 -210 l-15 -25 -22 35 c-95 154 -74 463 49 716 90 185 214 312 368 374 70
28 88 54 62 86 -17 19 -35 17 -100 -9z m-253 -128 l32 -10 -53 -63 c-107 -126
-189 -302 -226 -486 -18 -86 -21 -130 -18 -245 4 -122 7 -148 30 -202 l25 -62
-21 -7 c-43 -14 -180 -7 -224 11 -83 34 -84 91 -6 258 63 134 62 131 49 357
-10 182 18 288 102 381 40 45 73 65 130 79 42 10 130 5 180 -11z m1268 2 c84
-39 153 -144 176 -267 7 -37 9 -105 4 -184 -13 -229 -14 -223 49 -357 78 -167
77 -224 -6 -258 -44 -18 -181 -25 -224 -11 l-21 7 25 62 c23 54 26 80 30 202
3 115 0 159 -18 245 -38 185 -119 360 -227 487 -30 35 -53 66 -51 68 12 12 84
23 148 24 53 0 87 -5 115 -18z m-699 -562 c6 -5 17 -31 24 -57 43 -155 94
-221 231 -292 169 -90 249 -180 249 -283 0 -62 -19 -105 -63 -144 -74 -65
-153 -68 -246 -8 -203 131 -289 131 -492 0 -65 -42 -120 -53 -174 -35 -47 16
-104 66 -121 107 -18 43 -18 115 1 159 26 62 122 146 229 199 133 67 188 133
230 275 19 64 24 73 51 88 21 12 61 8 81 -9z m31 -788 c23 -11 59 -31 79 -45
l38 -25 -60 -28 c-84 -39 -194 -39 -278 0 -58 27 -59 28 -38 43 104 72 183 89
259 55z"/>
<path d="M1000 875 c-8 -10 -11 -36 -8 -76 4 -56 8 -65 41 -95 33 -30 43 -34
93 -34 52 0 59 3 95 39 37 36 39 42 39 98 0 33 -5 64 -12 71 -19 19 -232 16
-248 -3z m170 -94 c-5 -11 -15 -23 -21 -26 -17 -11 -58 4 -69 25 -10 19 -7 20
45 20 52 0 55 -1 45 -19z"/>
<path d="M695 1213 c-45 -12 -66 -35 -63 -67 3 -29 5 -31 38 -28 19 1 46 3 60
3 14 0 41 -2 60 -3 33 -3 35 -1 38 28 2 24 -3 35 -23 48 -29 19 -79 28 -110
19z"/>
<path d="M1467 1203 c-38 -15 -55 -47 -43 -78 7 -18 49 -20 75 -3 15 9 25 9
46 0 37 -17 63 -15 73 6 14 26 -2 57 -41 75 -43 21 -61 21 -110 0z"/>
</g>
</svg>
